<svg width="108" height="39" viewBox="0 0 108 39" fill="none" xmlns="http://www.w3.org/2000/svg">
<path d="M40.0089 19L46.3489 5H48.3289L54.6889 19H52.5889L46.9289 6.12H47.7289L42.0689 19H40.0089ZM42.7089 15.5L43.2489 13.9H51.1289L51.7089 15.5H42.7089ZM61.1773 19V5H63.1773V19H61.1773ZM78.0887 19.16C77.0087 19.16 76.0154 18.9867 75.1087 18.64C74.2021 18.28 73.4154 17.78 72.7487 17.14C72.0821 16.4867 71.5621 15.7267 71.1887 14.86C70.8154 13.9933 70.6287 13.04 70.6287 12C70.6287 10.96 70.8154 10.0067 71.1887 9.14C71.5621 8.27333 72.0821 7.52 72.7487 6.88C73.4287 6.22667 74.2221 5.72667 75.1287 5.38C76.0354 5.02 77.0354 4.84 78.1287 4.84C79.2354 4.84 80.2487 5.02 81.1687 5.38C82.0887 5.74 82.8687 6.28 83.5087 7L82.2687 8.24C81.6954 7.68 81.0687 7.27333 80.3887 7.02C79.7221 6.75333 78.9954 6.62 78.2087 6.62C77.4087 6.62 76.6621 6.75333 75.9687 7.02C75.2887 7.28667 74.6954 7.66 74.1887 8.14C73.6954 8.62 73.3087 9.19333 73.0287 9.86C72.7621 10.5133 72.6287 11.2267 72.6287 12C72.6287 12.76 72.7621 13.4733 73.0287 14.14C73.3087 14.7933 73.6954 15.3667 74.1887 15.86C74.6954 16.34 75.2887 16.7133 75.9687 16.98C76.6487 17.2467 77.3887 17.38 78.1887 17.38C78.9354 17.38 79.6487 17.2667 80.3287 17.04C81.0221 16.8 81.6621 16.4067 82.2487 15.86L83.3887 17.38C82.6954 17.9667 81.8821 18.4133 80.9487 18.72C80.0287 19.0133 79.0754 19.16 78.0887 19.16ZM81.4687 17.12V11.92H83.3887V17.38L81.4687 17.12ZM97.878 19.16C96.8113 19.16 95.8246 18.9867 94.918 18.64C94.0246 18.28 93.2446 17.78 92.578 17.14C91.9246 16.4867 91.4113 15.7267 91.038 14.86C90.6646 13.9933 90.478 13.04 90.478 12C90.478 10.96 90.6646 10.0067 91.038 9.14C91.4113 8.27333 91.9313 7.52 92.598 6.88C93.2646 6.22667 94.0446 5.72667 94.938 5.38C95.8446 5.02 96.8313 4.84 97.898 4.84C98.978 4.84 99.9713 5.02667 100.878 5.4C101.798 5.76 102.578 6.3 103.218 7.02L101.918 8.28C101.385 7.72 100.785 7.30667 100.118 7.04C99.4513 6.76 98.738 6.62 97.978 6.62C97.1913 6.62 96.458 6.75333 95.778 7.02C95.1113 7.28667 94.5313 7.66 94.038 8.14C93.5446 8.62 93.158 9.19333 92.878 9.86C92.6113 10.5133 92.478 11.2267 92.478 12C92.478 12.7733 92.6113 13.4933 92.878 14.16C93.158 14.8133 93.5446 15.38 94.038 15.86C94.5313 16.34 95.1113 16.7133 95.778 16.98C96.458 17.2467 97.1913 17.38 97.978 17.38C98.738 17.38 99.4513 17.2467 100.118 16.98C100.785 16.7 101.385 16.2733 101.918 15.7L103.218 16.96C102.578 17.68 101.798 18.2267 100.878 18.6C99.9713 18.9733 98.9713 19.16 97.878 19.16Z" fill="black"/>
<path d="M40 23H104" stroke="black" stroke-width="0.5"/>
<path d="M44.147 33.048C43.7256 33.048 43.3363 32.9787 42.979 32.84C42.6216 32.696 42.3123 32.496 42.051 32.24C41.7896 31.984 41.5843 31.6827 41.435 31.336C41.291 30.9893 41.219 30.6107 41.219 30.2C41.219 29.7893 41.291 29.4107 41.435 29.064C41.5843 28.7173 41.7896 28.416 42.051 28.16C42.3176 27.904 42.6296 27.7067 42.987 27.568C43.3443 27.424 43.7336 27.352 44.155 27.352C44.5603 27.352 44.9416 27.4213 45.299 27.56C45.6563 27.6933 45.9576 27.896 46.203 28.168L45.827 28.544C45.5976 28.3093 45.3443 28.1413 45.067 28.04C44.7896 27.9333 44.491 27.88 44.171 27.88C43.835 27.88 43.523 27.9387 43.235 28.056C42.947 28.168 42.6963 28.3307 42.483 28.544C42.2696 28.752 42.1016 28.9973 41.979 29.28C41.8616 29.5573 41.803 29.864 41.803 30.2C41.803 30.536 41.8616 30.8453 41.979 31.128C42.1016 31.4053 42.2696 31.6507 42.483 31.864C42.6963 32.072 42.947 32.2347 43.235 32.352C43.523 32.464 43.835 32.52 44.171 32.52C44.491 32.52 44.7896 32.4667 45.067 32.36C45.3443 32.2533 45.5976 32.0827 45.827 31.848L46.203 32.224C45.9576 32.496 45.6563 32.7013 45.299 32.84C44.9416 32.9787 44.5576 33.048 44.147 33.048ZM60.681 27.4H61.265V33H60.681V27.4ZM57.177 33H56.585V27.4H57.177V33ZM60.737 30.416H57.113V29.896H60.737V30.416ZM71.3168 33L73.8768 27.4H74.4608L77.0208 33H76.3968L74.0448 27.744H74.2848L71.9328 33H71.3168ZM72.3248 31.504L72.5008 31.024H75.7568L75.9328 31.504H72.3248ZM87.0672 33V27.4H87.6592V33H87.0672ZM98.6012 33V27.4H99.0892L102.953 32.264H102.697V27.4H103.281V33H102.793L98.9372 28.136H99.1932V33H98.6012Z" fill="black"/>
<path d="M34.8179 5.55536L9.2297 12.4881L7.04483 16.1436L7.59105 18.6646L20.1541 32.8243L34.8179 5.55536Z" fill="#00110B"/>
<path d="M4.48352 15.8075L8.1726 9.08477H20.1944C20.1944 9.08477 18.538 11.3503 16.8195 13.5806C15.38 15.4488 13.9652 17.2941 13.3714 17.9772L4.48352 15.8075Z" fill="url(#paint0_linear_291_258)"/>
<path d="M17.2969 33.1604L19.902 32.9503C19.902 32.9503 19.8799 30.2986 19.7681 27.3627C19.6889 25.2843 18.9135 23.2881 17.5592 21.7095C14.5544 18.2068 13.5095 17.6283 11.7921 17.4881C9.73278 17.3201 6.91863 18.2024 5.2799 18.7906L17.2969 33.1604Z" fill="#02270F"/>
<path opacity="0.4" d="M17.297 33.1604L19.902 32.9503C19.902 32.9503 19.88 30.2986 19.7681 27.3627C19.689 25.2843 18.9135 23.2881 17.5593 21.7095C14.5544 18.2068 13.5096 17.6283 11.7922 17.4881C9.73284 17.3201 6.91869 18.2024 5.27996 18.7906L17.297 33.1604Z" fill="url(#paint1_linear_291_258)"/>
<path d="M17.297 33.1604L19.902 32.9503C19.902 32.9503 19.88 30.2986 19.7681 27.3627C19.689 25.2843 18.9135 23.2881 17.5593 21.7095C14.5544 18.2068 13.5096 17.6283 11.7922 17.4881C9.73284 17.3201 6.91869 18.2024 5.27996 18.7906L17.297 33.1604Z" fill="url(#paint2_linear_291_258)"/>
<path opacity="0.77" d="M17.297 33.1604L19.902 32.9503C19.902 32.9503 19.88 30.2986 19.7681 27.3627C19.689 25.2843 18.9135 23.2881 17.5593 21.7095C14.5544 18.2068 13.5096 17.6283 11.7922 17.4881C9.73284 17.3201 6.91869 18.2024 5.27996 18.7906L17.297 33.1604Z" fill="url(#paint3_linear_291_258)"/>
<path d="M18.3054 24.631L13.5995 18.3285C13.5995 18.3285 15.7424 15.6664 18.3054 12.2285C20.8684 8.79065 23.7256 4.84107 23.7256 4.84107L27.9693 6.89989L24.1457 13.7486L18.3054 24.631Z" fill="url(#paint4_linear_291_258)"/>
<path d="M18.3054 24.631L13.5995 18.3285C13.5995 18.3285 15.7424 15.6664 18.3054 12.2285C20.8684 8.79065 23.7256 4.84107 23.7256 4.84107L27.9693 6.89989L24.1457 13.7486L18.3054 24.631Z" fill="url(#paint5_linear_291_258)"/>
<path d="M28.3894 18.1604H22.218C22.218 18.1604 25.7482 11.5248 27.6768 8.17162C28.1087 7.42053 28.7817 6.84556 29.5804 6.50968C31.8315 5.56301 34.466 4.45402 35.3961 4.06248C35.6261 3.96564 35.8709 3.9167 36.1205 3.9167L32.339 11.0385L28.3894 18.1604Z" fill="url(#paint6_linear_291_258)"/>
<path d="M25.675 19.5815C26.3925 19.4816 27.112 19.4272 27.8011 19.3789C27.8011 19.3789 26.7039 21.795 24.1295 26.5002C22.0405 30.3182 20.5906 32.7128 20.1182 33.48C20.0149 33.6477 19.8319 33.7486 19.635 33.7486C18.9958 33.7486 18.4798 33.2263 18.4877 32.5872L18.5132 30.5015C18.5429 28.0762 19.2224 25.7032 20.4809 23.6297C21.6834 21.6484 23.3795 19.9013 25.675 19.5815Z" fill="url(#paint7_linear_291_258)"/>
<path d="M26.4879 19.6401C26.9002 19.5391 27.3332 19.4536 27.801 19.3789C27.801 19.3789 26.7035 21.795 24.1286 26.5002C21.9276 30.5221 20.436 32.9644 20.0492 33.5889C19.9869 33.6895 19.8779 33.7486 19.7596 33.7486C19.1884 33.7486 18.7281 33.287 18.7457 32.7162C18.7623 32.1774 18.7926 31.4492 18.8477 30.5833C18.9908 28.3359 20.4228 25.0807 21.6322 23.181C22.9714 21.0776 24.0659 20.2333 26.4879 19.6401Z" fill="url(#paint8_linear_291_258)"/>
<path d="M9.13766 20.2606C7.20424 19.5243 5.2802 18.7907 5.2802 18.7907L17.339 33.1604C17.339 33.1604 17.2785 31.5065 17.2134 29.4425C17.1549 27.5866 15.9947 25.3199 14.7558 23.9368C13.097 22.0849 11.4611 21.1454 9.13766 20.2606Z" fill="url(#paint9_linear_291_258)"/>
<path d="M9.11987 20.3073C8.15315 19.9392 7.18878 19.5717 6.46609 19.2962L5.59323 18.9635L5.44221 18.9059L17.2838 33.0168L17.2786 32.8715C17.2719 32.6842 17.2623 32.413 17.2507 32.0772C17.2274 31.4057 17.196 30.4762 17.1634 29.4441C17.1054 27.6035 15.9524 25.3476 14.7186 23.9702C13.0666 22.1259 11.4382 21.1903 9.11987 20.3073Z" stroke="url(#paint10_linear_291_258)" stroke-width="0.1"/>
<path d="M22.0879 4.12679C19.904 4.12679 16.2005 4.05679 15.1941 4.29485C14.1877 4.53291 12.8159 5.54522 11.3306 6.52116C9.69626 7.57813 8.22134 8.79065 8.22134 8.79065H20.4062C21.3841 8.79065 23.1913 8.74863 23.7653 8.6646C24.3393 8.58057 25.3852 8.53855 26.4671 7.86628C27.5491 7.19401 29.6499 3.74863 29.6499 3.74863C29.6499 3.74863 24.2718 4.12679 22.0879 4.12679Z" fill="url(#paint11_linear_291_258)"/>
<path d="M22.5921 4.96712C20.7639 5.13519 16.7928 4.84107 15.1941 5.21922C14.433 5.39927 12.8159 6.30152 11.3306 7.1094C9.69626 7.9983 8.22134 8.79065 8.22134 8.79065H20.4062C21.3841 8.79065 23.1913 8.74863 23.7653 8.6646C24.3393 8.58057 25.3852 8.53855 26.4671 7.86628C27.5491 7.19401 29.6499 3.74863 29.6499 3.74863C29.6499 3.74863 24.4203 4.79905 22.5921 4.96712Z" fill="url(#paint12_linear_291_258)"/>
<path d="M22.5921 4.96712C20.7639 5.13519 16.7928 4.84107 15.1942 5.21922C14.433 5.39927 12.816 6.30152 11.3306 7.1094C9.6963 7.9983 8.30542 8.79065 8.30542 8.79065H20.4063C21.3842 8.79065 23.1914 8.74863 23.7654 8.6646C24.3393 8.58057 25.3852 8.53855 26.4672 7.86628C27.5491 7.19401 29.65 3.74863 29.65 3.74863C29.65 3.74863 24.4204 4.79905 22.5921 4.96712Z" fill="url(#paint13_linear_291_258)"/>
<path d="M29.5471 3.82013C29.5375 3.83559 29.5269 3.85275 29.5151 3.87154C29.4557 3.9669 29.3695 4.10393 29.2627 4.27049C29.0491 4.60363 28.753 5.05473 28.4233 5.52672C28.0935 5.99883 27.7304 6.49123 27.3826 6.90721C27.0336 7.32454 26.7039 7.66035 26.4408 7.82381C25.5178 8.39733 24.6229 8.50712 24.0228 8.58075C23.9267 8.59255 23.838 8.60342 23.7581 8.61513C23.1885 8.69853 21.3852 8.74065 20.4063 8.74065H8.49492L8.57289 8.69648C8.72877 8.60834 8.95365 8.48155 9.22959 8.32699C9.78148 8.01785 10.5376 7.59765 11.3545 7.15332C11.4752 7.08766 11.5968 7.0214 11.7187 6.95497C12.347 6.61246 12.9835 6.26544 13.5567 5.97343C14.2425 5.62397 14.8319 5.3563 15.2057 5.26788C15.998 5.08047 17.3837 5.05913 18.8069 5.06439C19.0749 5.06538 19.3442 5.06731 19.6109 5.06922C20.7558 5.07744 21.8528 5.0853 22.5967 5.01691C23.5135 4.93263 25.2804 4.62753 26.8157 4.34402C27.5839 4.20218 28.2949 4.06559 28.8138 3.96447C29.0733 3.9139 29.2848 3.8722 29.4314 3.84314L29.5471 3.82013Z" stroke="url(#paint14_linear_291_258)" stroke-width="0.1"/>
<path d="M13.3714 17.9772L0.154149 17.9923L0 17.278C0 17.278 4.66387 15.3031 8.12328 14.0007C11.5827 12.6982 16.5827 11.0594 16.5827 11.0594L16.8348 11.2696C16.8348 11.2696 16.0313 13.0842 15.1456 14.799C14.3849 16.272 13.5656 17.6342 13.3714 17.9772Z" fill="url(#paint15_linear_291_258)"/>
<path d="M13.3715 17.9772L0.154144 17.9923L16.8348 11.2696C16.8348 11.2696 16.0313 13.0842 15.1456 14.7991C14.3849 16.272 13.5656 17.6342 13.3715 17.9772Z" fill="url(#paint16_linear_291_258)"/>
<path d="M13.5121 17.635C13.4393 17.7597 13.3815 17.8588 13.3424 17.9272L0.412701 17.942L16.7387 11.3623C16.7161 11.4127 16.6862 11.4791 16.6499 11.5593C16.5608 11.7561 16.4327 12.0363 16.277 12.3702C15.9656 13.0378 15.5436 13.9195 15.1012 14.7761C14.4917 15.9562 13.845 17.0645 13.5121 17.635Z" stroke="url(#paint17_linear_291_258)" stroke-width="0.1"/>
<defs>
<linearGradient id="paint0_linear_291_258" x1="12.4386" y1="9.12678" x2="11.7664" y2="15.6394" gradientUnits="userSpaceOnUse">
<stop stop-color="#106432"/>
<stop offset="1" stop-color="#021F0E"/>
</linearGradient>
<linearGradient id="paint1_linear_291_258" x1="14.7429" y1="22.7772" x2="16.8857" y2="20.6343" gradientUnits="userSpaceOnUse">
<stop stop-color="#0FC64F"/>
<stop offset="1" stop-color="#062010"/>
</linearGradient>
<linearGradient id="paint2_linear_291_258" x1="10.0286" y1="28.5629" x2="11.8286" y2="18.1915" gradientUnits="userSpaceOnUse">
<stop stop-color="#0FC64F" stop-opacity="0"/>
<stop offset="1" stop-color="#001207"/>
</linearGradient>
<linearGradient id="paint3_linear_291_258" x1="4.67143" y1="33.1486" x2="18.9429" y2="33.5343" gradientUnits="userSpaceOnUse">
<stop stop-color="#08692A" stop-opacity="0"/>
<stop offset="1" stop-color="#000502"/>
</linearGradient>
<linearGradient id="paint4_linear_291_258" x1="24.4958" y1="6.98393" x2="15.5883" y2="22.7822" gradientUnits="userSpaceOnUse">
<stop stop-color="#001107"/>
<stop offset="0.431349" stop-color="#1B8446"/>
</linearGradient>
<linearGradient id="paint5_linear_291_258" x1="22.521" y1="7.06796" x2="23.0672" y2="22.9503" gradientUnits="userSpaceOnUse">
<stop/>
<stop offset="0.688443" stop-color="#1B8446" stop-opacity="0"/>
</linearGradient>
<linearGradient id="paint6_linear_291_258" x1="32.9832" y1="7.48813" x2="21.9327" y2="18.6646" gradientUnits="userSpaceOnUse">
<stop stop-color="#10DB55"/>
<stop offset="1" stop-color="#258746"/>
</linearGradient>
<linearGradient id="paint7_linear_291_258" x1="19.3277" y1="33.0764" x2="26.9748" y2="18.8327" gradientUnits="userSpaceOnUse">
<stop stop-color="#03270B"/>
<stop offset="1" stop-color="#033C21"/>
</linearGradient>
<linearGradient id="paint8_linear_291_258" x1="27.6051" y1="19.8831" x2="17.0168" y2="35.3453" gradientUnits="userSpaceOnUse">
<stop stop-color="#10DB55"/>
<stop offset="1" stop-color="#10DB55" stop-opacity="0"/>
</linearGradient>
<linearGradient id="paint9_linear_291_258" x1="14.9143" y1="23.2058" x2="10.9244" y2="26.6058" gradientUnits="userSpaceOnUse">
<stop stop-color="#10DB55"/>
<stop offset="1" stop-color="#022C10"/>
</linearGradient>
<linearGradient id="paint10_linear_291_258" x1="14.4118" y1="22.194" x2="11.8488" y2="24.8411" gradientUnits="userSpaceOnUse">
<stop stop-color="#87FCB0"/>
<stop offset="1" stop-color="white" stop-opacity="0"/>
</linearGradient>
<linearGradient id="paint11_linear_291_258" x1="14.4118" y1="3.74863" x2="4.66387" y2="9.9251" gradientUnits="userSpaceOnUse">
<stop stop-color="#1D8949"/>
<stop offset="1" stop-color="#1D8949"/>
</linearGradient>
<linearGradient id="paint12_linear_291_258" x1="18.9076" y1="3.74863" x2="21.8067" y2="9.63099" gradientUnits="userSpaceOnUse">
<stop stop-color="#10DB55"/>
<stop offset="1" stop-color="#10DB55" stop-opacity="0"/>
</linearGradient>
<linearGradient id="paint13_linear_291_258" x1="24.4538" y1="8.79065" x2="22.0169" y2="3.74863" gradientUnits="userSpaceOnUse">
<stop stop-color="#02280F"/>
<stop offset="1" stop-color="#10DB55" stop-opacity="0"/>
</linearGradient>
<linearGradient id="paint14_linear_291_258" x1="18.6555" y1="4.4209" x2="19.4538" y2="7.48813" gradientUnits="userSpaceOnUse">
<stop stop-color="#44FA83"/>
<stop offset="1" stop-color="white" stop-opacity="0"/>
</linearGradient>
<linearGradient id="paint15_linear_291_258" x1="-1.20635e-07" y1="16.8159" x2="17.2269" y2="11.4797" gradientUnits="userSpaceOnUse">
<stop stop-color="#1B8446"/>
<stop offset="1" stop-color="#117B3C"/>
</linearGradient>
<linearGradient id="paint16_linear_291_258" x1="0.840364" y1="18.3705" x2="18.6135" y2="12.0259" gradientUnits="userSpaceOnUse">
<stop stop-color="#10DB55"/>
<stop offset="1" stop-color="#10DB55" stop-opacity="0"/>
</linearGradient>
<linearGradient id="paint17_linear_291_258" x1="9.91599" y1="13.6646" x2="10.3576" y2="15.671" gradientUnits="userSpaceOnUse">
<stop stop-color="#13CA52"/>
<stop offset="1" stop-color="white" stop-opacity="0"/>
</linearGradient>
</defs>
</svg>
